<?xml version="1.0" encoding="UTF-8" standalone="no"?>
<!-- Created with Inkscape (http://www.inkscape.org/) -->

<svg
   width="16"
   height="16"
   viewBox="0 0 4.2333333 4.2333332"
   version="1.1"
   id="svg1"
   inkscape:version="1.4.3 (0d15f75042, 2025-12-25)"
   sodipodi:docname="logo.svg"
   xmlns:inkscape="http://www.inkscape.org/namespaces/inkscape"
   xmlns:sodipodi="http://sodipodi.sourceforge.net/DTD/sodipodi-0.dtd"
   xmlns="http://www.w3.org/2000/svg"
   xmlns:svg="http://www.w3.org/2000/svg">
  <sodipodi:namedview
     id="namedview1"
     pagecolor="#ffffff"
     bordercolor="#000000"
     borderopacity="0.25"
     inkscape:showpageshadow="2"
     inkscape:pageopacity="0.0"
     inkscape:pagecheckerboard="0"
     inkscape:deskcolor="#d1d1d1"
     inkscape:document-units="px"
     showgrid="true"
     inkscape:zoom="48.5"
     inkscape:cx="8.1134021"
     inkscape:cy="7.4020619"
     inkscape:window-width="1920"
     inkscape:window-height="993"
     inkscape:window-x="0"
     inkscape:window-y="0"
     inkscape:window-maximized="1"
     inkscape:current-layer="layer1">
    <inkscape:grid
       id="grid1"
       units="px"
       originx="0"
       originy="0"
       spacingx="0.26458333"
       spacingy="0.26458333"
       empcolor="#0099e5"
       empopacity="0.30196078"
       color="#0099e5"
       opacity="0.14901961"
       empspacing="5"
       enabled="true"
       visible="true" />
  </sodipodi:namedview>
  <defs
     id="defs1" />
  <g
     inkscape:label="Layer 1"
     inkscape:groupmode="layer"
     id="layer1">
    <path
       id="rect1"
       style="fill:#c62828;stroke-width:0.456677;stroke-linecap:round;stroke-linejoin:round;stroke-opacity:0.0946013;fill-opacity:1"
       d="M 0,0 H 2.1166666 V 2.1166666 H 0 Z" />
    <path
       id="rect1-1"
       style="fill:#558b2f;stroke-width:0.456677;stroke-linecap:round;stroke-linejoin:round;stroke-opacity:0.0946013;fill-opacity:1"
       d="M 2.1166665,0 H 4.2333331 V 2.1166666 H 2.1166665 Z" />
    <path
       style="font-weight:bold;font-size:1.76389px;font-family:'Noto Sans';-inkscape-font-specification:'Noto Sans Bold';letter-spacing:0.661458px;fill:#ffffff;stroke-width:0.529;stroke-linecap:round;stroke-linejoin:round;stroke-opacity:0.0946013"
       d="m 3.6918207,1.2347227 q 0,0.1305278 -0.058208,0.2363612 -0.056445,0.1040695 -0.1728612,0.1658057 -0.1146529,0.059972 -0.2910419,0.059972 -0.2504723,0 -0.3810002,-0.127 Q 2.6581811,1.4410978 2.6581811,1.2311949 V 0.41980546 H 2.9245285 V 1.1906254 q 0,0.1552223 0.0635,0.2187224 0.0635,0.0635 0.1887362,0.0635 0.1305279,0 0.1887362,-0.068792 0.059972,-0.068792 0.059972,-0.2151946 V 0.41980546 h 0.2663474 z"
       id="text1-7"
       aria-label="U" />
    <path
       id="rect1-3"
       style="fill:#0277bd;stroke-width:0.456677;stroke-linecap:round;stroke-linejoin:round;stroke-opacity:0.0946013;fill-opacity:1"
       d="M 1e-8,2.1166666 H 2.1166666 V 4.2333332 H 1e-8 Z" />
    <path
       style="font-weight:bold;font-size:1.76389px;font-family:'Noto Sans';-inkscape-font-specification:'Noto Sans Bold';letter-spacing:0.661458px;fill:#ffffff;stroke-width:0.529;stroke-linecap:round;stroke-linejoin:round;stroke-opacity:0.0946013"
       d="M 0.66939531,3.8047092 V 2.5452917 h 0.2663474 V 3.5842229 H 1.4472708 v 0.2204863 z"
       id="text1-7-3"
       aria-label="L" />
    <path
       id="rect1-6"
       style="fill:#ef6c00;stroke-width:0.456677;stroke-linecap:round;stroke-linejoin:round;stroke-opacity:0.0946013;fill-opacity:1"
       d="M 2.1166665,2.1166666 H 4.2333331 V 4.2333332 H 2.1166665 Z" />
    <path
       style="font-weight:bold;font-size:1.76389px;font-family:'Noto Sans';-inkscape-font-specification:'Noto Sans Bold';letter-spacing:0.661458px;fill:#ffffff;stroke-width:0.529;stroke-linecap:round;stroke-linejoin:round;stroke-opacity:0.0946013"
       d="M 3.308173,3.8047092 H 3.0418256 V 2.7675419 H 2.6996309 V 2.5452917 H 3.6503677 V 2.7675419 H 3.308173 Z"
       id="text1-7-0"
       aria-label="T" />
    <path
       style="font-weight:bold;font-size:1.76389px;font-family:'Noto Sans';-inkscape-font-specification:'Noto Sans Bold';letter-spacing:0.661458px;fill:#ffffff;stroke-width:0.529;stroke-linecap:round;stroke-linejoin:round;stroke-opacity:0.0946013"
       d="M 0.91810334,1.6880426 0.61471425,0.70026423 h -0.007056 q 0.001764,0.0352778 0.005292,0.1058334 0.003528,0.0705556 0.007056,0.15169454 0.003528,0.079375 0.003528,0.14463903 V 1.6880426 H 0.38540855 V 0.42862516 H 0.7487699 L 1.0468673,1.3917091 h 0.00529 L 1.3678953,0.42862516 H 1.7312566 V 1.6880426 H 1.4825481 V 1.0918478 q 0,-0.059972 0.00176,-0.13758341 0.00353,-0.0776112 0.00529,-0.14640287 0.00353,-0.0705556 0.00529,-0.1058334 h -0.00706 L 1.1632841,1.6880426 Z"
       id="text1"
       aria-label="M" />
  </g>
</svg>
