<?xml version="1.0" encoding="UTF-8" standalone="no"?>
<!-- Created with Inkscape (http://www.inkscape.org/) -->

<svg
   width="16"
   height="16"
   viewBox="0 0 4.2333333 4.2333332"
   version="1.1"
   id="svg1"
   inkscape:version="1.4.3 (0d15f75042, 2025-12-25)"
   sodipodi:docname="logo.svg"
   xmlns:inkscape="http://www.inkscape.org/namespaces/inkscape"
   xmlns:sodipodi="http://sodipodi.sourceforge.net/DTD/sodipodi-0.dtd"
   xmlns="http://www.w3.org/2000/svg"
   xmlns:svg="http://www.w3.org/2000/svg">
  <sodipodi:namedview
     id="namedview1"
     pagecolor="#ffffff"
     bordercolor="#000000"
     borderopacity="0.25"
     inkscape:showpageshadow="2"
     inkscape:pageopacity="0.0"
     inkscape:pagecheckerboard="0"
     inkscape:deskcolor="#d1d1d1"
     inkscape:document-units="px"
     showgrid="true"
     inkscape:zoom="48.5"
     inkscape:cx="7.7628866"
     inkscape:cy="8.8865979"
     inkscape:window-width="1920"
     inkscape:window-height="993"
     inkscape:window-x="0"
     inkscape:window-y="0"
     inkscape:window-maximized="1"
     inkscape:current-layer="layer1">
    <inkscape:grid
       id="grid1"
       units="px"
       originx="0"
       originy="0"
       spacingx="0.26458333"
       spacingy="0.26458333"
       empcolor="#0099e5"
       empopacity="0.30196078"
       color="#0099e5"
       opacity="0.14901961"
       empspacing="5"
       enabled="true"
       visible="true" />
  </sodipodi:namedview>
  <defs
     id="defs1" />
  <g
     inkscape:label="Layer 1"
     inkscape:groupmode="layer"
     id="layer1">
    <path
       id="rect1"
       style="fill:#c62828;fill-opacity:1;stroke-width:0.456677;stroke-linecap:round;stroke-linejoin:round;stroke-opacity:0.0946013"
       d="M 6.6118952e-8,8.0404663e-8 H 2.1166666 V 2.1166665 H 6.6118952e-8 Z" />
    <path
       id="rect1-1"
       style="fill:#558b2f;fill-opacity:1;stroke-width:0.456677;stroke-linecap:round;stroke-linejoin:round;stroke-opacity:0.0946013"
       d="M 2.1166666,8.0404662e-8 H 4.2333332 V 2.1166665 H 2.1166666 Z" />
    <path
       style="font-weight:bold;font-size:1.76389px;font-family:'Noto Sans';-inkscape-font-specification:'Noto Sans Bold';letter-spacing:0.661458px;fill:#ffffff;stroke-width:0.462875;stroke-linecap:round;stroke-linejoin:round;stroke-opacity:0.0946013"
       d="m 3.4949265,1.3449657 q 0,0.1142118 -0.050932,0.2068161 -0.049389,0.091061 -0.1512535,0.14508 -0.1003213,0.052475 -0.2546617,0.052475 -0.2191633,0 -0.3333752,-0.1111251 Q 2.5904918,1.5255439 2.5904918,1.3418789 V 0.63191311 h 0.233054 V 1.3063806 q 0,0.1358195 0.055563,0.1913821 0.055563,0.055562 0.1651442,0.055562 0.1142119,0 0.1651442,-0.060193 0.052475,-0.060193 0.052475,-0.1882953 V 0.63191311 h 0.233054 z"
       id="text1-7"
       aria-label="U" />
    <path
       id="rect1-3"
       style="fill:#0277bd;fill-opacity:1;stroke-width:0.456677;stroke-linecap:round;stroke-linejoin:round;stroke-opacity:0.0946013"
       d="M 8.7762099e-8,2.1166665 H 2.1166666 V 4.2333332 H 8.7762099e-8 Z" />
    <path
       style="font-weight:bold;font-size:1.76389px;font-family:'Noto Sans';-inkscape-font-specification:'Noto Sans Bold';letter-spacing:0.661458px;fill:#ffffff;stroke-width:0.462875;stroke-linecap:round;stroke-linejoin:round;stroke-opacity:0.0946013"
       d="M 0.85030425,3.5937039 V 2.4917135 H 1.0833582 v 0.9090648 h 0.4475871 v 0.1929256 z"
       id="text1-7-3"
       aria-label="L" />
    <path
       id="rect1-6"
       style="fill:#ef6c00;fill-opacity:1;stroke-width:0.456677;stroke-linecap:round;stroke-linejoin:round;stroke-opacity:0.0946013"
       d="M 2.1166666,2.1166665 H 4.2333332 V 4.2333332 H 2.1166666 Z" />
    <path
       style="font-weight:bold;font-size:1.76389px;font-family:'Noto Sans';-inkscape-font-specification:'Noto Sans Bold';letter-spacing:0.661458px;fill:#ffffff;stroke-width:0.462875;stroke-linecap:round;stroke-linejoin:round;stroke-opacity:0.0946013"
       d="M 3.1592348,3.5937039 H 2.9261808 V 2.6861824 H 2.6267604 V 2.4917135 H 3.4586552 V 2.6861824 H 3.1592348 Z"
       id="text1-7-0"
       aria-label="T" />
    <path
       style="font-weight:bold;font-size:1.76389px;font-family:'Noto Sans';-inkscape-font-specification:'Noto Sans Bold';letter-spacing:0.661458px;fill:#ffffff;stroke-width:0.462875;stroke-linecap:round;stroke-linejoin:round;stroke-opacity:0.0946013"
       d="M 1.0679238,1.7416206 0.80245832,0.87731453 h -0.006174 q 0.001543,0.0308681 0.00463,0.0926042 0.003087,0.0617361 0.006174,0.13273277 0.003087,0.069453 0.003087,0.1265591 v 0.51241 h -0.20836 V 0.63963035 h 0.3179412 L 1.1805922,1.4823288 h 0.00463 L 1.4614917,0.63963035 H 1.7794329 V 1.7416206 h -0.21762 V 1.2199502 q 0,-0.052475 0.00154,-0.1203855 0.00309,-0.06791 0.00463,-0.12810253 0.00309,-0.0617362 0.00463,-0.0926042 h -0.00618 L 1.2824569,1.7416206 Z"
       id="text1"
       aria-label="M" />
  </g>
</svg>
