<svg viewBox="0 0 4.233 4.233" xmlns="http://www.w3.org/2000/svg"><g stroke-linecap="round" stroke-linejoin="round" stroke-opacity=".095"><path d="M0 0h2.117v2.117H0Z" fill="#c62828"/><path d="M2.117 0h2.116v2.117H2.117Z" fill="#558b2f"/><path style="-inkscape-font-specification:&quot;Noto Sans Bold&quot;" d="M3.495 1.345q0 .114-.051.207-.05.09-.151.145-.1.052-.255.052-.22 0-.333-.11-.115-.113-.115-.297v-.71h.234v.674q0 .136.055.192.056.055.165.055.114 0 .165-.06.053-.06.053-.188V.632h.233z" aria-label="U" font-weight="700" font-size="1.764" font-family="Noto Sans" letter-spacing=".661" fill="#fff"/><path d="M0 2.117h2.117v2.116H0Z" fill="#0277bd"/><path style="-inkscape-font-specification:&quot;Noto Sans Bold&quot;" d="M.85 3.594V2.492h.233V3.4h.448v.193z" aria-label="L" font-weight="700" font-size="1.764" font-family="Noto Sans" letter-spacing=".661" fill="#fff"/><path d="M2.117 2.117h2.116v2.116H2.117Z" fill="#ef6c00"/><path style="-inkscape-font-specification:&quot;Noto Sans Bold&quot;" d="M3.16 3.594h-.234v-.908h-.3v-.194h.833v.194h-.3Z" aria-label="T" font-weight="700" font-size="1.764" font-family="Noto Sans" letter-spacing=".661" fill="#fff"/><path style="-inkscape-font-specification:&quot;Noto Sans Bold&quot;" d="M1.068 1.742.802.877H.796L.801.97l.006.133q.003.07.003.126v.513H.602V.64H.92l.26.842h.005L1.461.64h.318v1.102h-.217V1.22l.001-.12.005-.129.005-.092h-.007l-.284.863Z" aria-label="M" font-weight="700" font-size="1.764" font-family="Noto Sans" letter-spacing=".661" fill="#fff"/></g></svg>