<?xml version="1.0" encoding="UTF-8"?>
<svg width="16" height="16" version="1.1" viewBox="0 0 4.2333 4.2333" xmlns="http://www.w3.org/2000/svg">
<g stroke-linecap="round" stroke-linejoin="round" stroke-opacity=".094601">
<path d="m0 0h2.1167v2.1167h-2.1167z" fill="#c62828" stroke-width=".45668"/>
<path d="m2.1167 0h2.1167v2.1167h-2.1167z" fill="#558b2f" stroke-width=".45668"/>
<path d="m3.6918 1.2347q0 0.13053-0.058208 0.23636-0.056445 0.10407-0.17286 0.16581-0.11465 0.059972-0.29104 0.059972-0.25047 0-0.381-0.127-0.13053-0.12876-0.13053-0.33867v-0.81139h0.26635v0.77082q0 0.15522 0.0635 0.21872 0.0635 0.0635 0.18874 0.0635 0.13053 0 0.18874-0.068792 0.059972-0.068792 0.059972-0.21519v-0.76906h0.26635z" fill="#fff" stroke-width=".529" aria-label="U"/>
<path d="m1e-8 2.1167h2.1167v2.1167h-2.1167z" fill="#0277bd" stroke-width=".45668"/>
<path d="m0.6694 3.8047v-1.2594h0.26635v1.0389h0.51153v0.22049z" fill="#fff" stroke-width=".529" aria-label="L"/>
<path d="m2.1167 2.1167h2.1167v2.1167h-2.1167z" fill="#ef6c00" stroke-width=".45668"/>
<path d="m3.3082 3.8047h-0.26635v-1.0372h-0.34219v-0.22225h0.95074v0.22225h-0.34219z" fill="#fff" stroke-width=".529" aria-label="T"/>
<path d="m0.9181 1.688-0.30339-0.98778h-0.007056q0.001764 0.035278 0.005292 0.10583t0.007056 0.15169q0.003528 0.079375 0.003528 0.14464v0.58561h-0.23813v-1.2594h0.36336l0.2981 0.96308h0.00529l0.31574-0.96308h0.36336v1.2594h-0.24871v-0.59619q0-0.059972 0.00176-0.13758 0.00353-0.077611 0.00529-0.1464 0.00353-0.070556 0.00529-0.10583h-0.00706l-0.32454 0.98601z" fill="#fff" stroke-width=".529" aria-label="M"/>
</g>
</svg>
